<svg xmlns="http://www.w3.org/2000/svg" width="19.007" height="22.999" viewBox="0 0 19.007 22.999">
  <path id="Shape_3" data-name="Shape 3" d="M7.219,23c-.044,0-.085-.011-.128-.013A.6.6,0,0,1,7.028,23a1.57,1.57,0,0,1-.41-.061,3.286,3.286,0,0,1-1.78-.977L.851,17.627A3.246,3.246,0,0,1,0,15.4V3.274A3.271,3.271,0,0,1,3.261,0H15.745a3.271,3.271,0,0,1,3.261,3.274V19.725A3.271,3.271,0,0,1,15.745,23ZM1.292,3.274V15.367a.425.425,0,0,0,.418.42H3.471A3.271,3.271,0,0,1,6.732,19.06v2.346a.292.292,0,0,0,.167.265,2.062,2.062,0,0,0,.321.031h8.526a2,2,0,0,0,1.97-1.977V3.274A1.976,1.976,0,0,0,15.745,1.3H3.261A1.976,1.976,0,0,0,1.292,3.274ZM5.44,20.706V19.06a1.976,1.976,0,0,0-1.97-1.977H2.108Zm6.834-8.349v-.051a2.944,2.944,0,0,1-2.155-2.43.647.647,0,0,1,.548-.733.638.638,0,0,1,.73.546,1.749,1.749,0,0,0,.877,1.239V8.006a2.571,2.571,0,0,1-1.968-2.462A2.352,2.352,0,0,1,12.275,3.1V3.064a.646.646,0,1,1,1.292,0V3.07a2.639,2.639,0,0,1,2.158,1.945.646.646,0,1,1-1.248.333,1.333,1.333,0,0,0-.91-.95V7.027a2.645,2.645,0,0,1,2.3,2.352,2.762,2.762,0,0,1-.711,2.084,2.791,2.791,0,0,1-1.586.876v.019a.646.646,0,1,1-1.292,0ZM13.566,11a1.547,1.547,0,0,0,.63-.407,1.441,1.441,0,0,0,.384-1.077c-.076-.675-.4-.928-1.013-1.134ZM11.594,5.448a1.234,1.234,0,0,0,.68,1.161V4.452A.993.993,0,0,0,11.594,5.448Z" fill="#19264d"/>
</svg>
