<svg xmlns="http://www.w3.org/2000/svg" width="19.997" height="23.007" viewBox="0 0 19.997 23.007">
  <path id="Shape_1" data-name="Shape 1" d="M1041.011,2250.235a3.214,3.214,0,0,0-3.169-3.25h-12.133a3.214,3.214,0,0,0-3.169,3.25v2.171h-.9a.644.644,0,0,0,0,1.287h.9v9.573h-.9a.644.644,0,0,0,0,1.287h.9v2.188a3.214,3.214,0,0,0,3.169,3.25h6.846c.057,0,.111-.014.167-.018h5.119a3.214,3.214,0,0,0,3.169-3.25v-1.772a1.682,1.682,0,0,1,0-2.085v-3.336a1.7,1.7,0,0,1,0-2.085v-3.353a1.683,1.683,0,0,1,0-2.086Zm-17.216,16.507v-2.188h.914a.644.644,0,0,0,0-1.287h-.914v-9.573h.914a.644.644,0,0,0,0-1.287h-.914v-2.171a1.941,1.941,0,0,1,1.914-1.963h12.133a1.942,1.942,0,0,1,1.914,1.963v1.772a.386.386,0,0,1-.389.4h-3.254a1.667,1.667,0,0,0-1.644,1.686v12.649a1.94,1.94,0,0,1-1.747,1.946h-.167a.583.583,0,0,0-.084.017h-6.762A1.965,1.965,0,0,1,1023.795,2266.742Zm15.961-12.649v3.353a.385.385,0,0,1-.389.4h-3.643v-3.752a.4.4,0,0,1,.389-.4h3.254A.386.386,0,0,1,1039.756,2254.093Zm0,5.438v3.336a.386.386,0,0,1-.389.4h-3.643v-4.135h3.643A.377.377,0,0,1,1039.756,2259.531Zm0,7.194a1.941,1.941,0,0,1-1.914,1.963h-2.764a3.271,3.271,0,0,0,.646-1.946v-2.188h3.643a.385.385,0,0,1,.389.4Z" transform="translate(-1021.015 -2246.986)" fill="#1eb8e3"/>
</svg>
