<svg xmlns="http://www.w3.org/2000/svg" width="19.999" height="22.992" viewBox="0 0 19.999 22.992">
  <path id="Shape_4" data-name="Shape 4" d="M12.332,22.992a1.708,1.708,0,0,1-1.715-1.7V11.164a1.708,1.708,0,0,1,1.715-1.7h5.953A1.708,1.708,0,0,1,20,11.164v10.13a1.708,1.708,0,0,1-1.714,1.7Zm-.406-11.828v10.13a.41.41,0,0,0,.406.4h5.953a.409.409,0,0,0,.406-.4V11.164a.41.41,0,0,0-.406-.4H12.332A.41.41,0,0,0,11.926,11.164ZM1.714,22.992A1.708,1.708,0,0,1,0,21.294V16.343a1.708,1.708,0,0,1,1.714-1.7H7.667a1.708,1.708,0,0,1,1.715,1.7v4.951a1.708,1.708,0,0,1-1.715,1.7Zm-.406-6.649v4.951a.41.41,0,0,0,.406.4H7.667a.4.4,0,0,0,.406-.4V16.343a.4.4,0,0,0-.406-.4H1.714A.41.41,0,0,0,1.308,16.343Zm.406-2.816A1.708,1.708,0,0,1,0,11.828V1.7A1.708,1.708,0,0,1,1.714,0H7.667A1.708,1.708,0,0,1,9.382,1.7V11.828a1.708,1.708,0,0,1-1.715,1.7ZM1.308,1.7V11.828a.41.41,0,0,0,.406.4H7.667a.4.4,0,0,0,.406-.4V1.7a.4.4,0,0,0-.406-.4Zm11.023,6.65a1.708,1.708,0,0,1-1.715-1.7V1.7A1.708,1.708,0,0,1,12.332,0h5.953A1.708,1.708,0,0,1,20,1.7V6.649a1.708,1.708,0,0,1-1.714,1.7ZM11.926,1.7V6.649a.41.41,0,0,0,.406.4h5.953a.41.41,0,0,0,.406-.4V1.7a.409.409,0,0,0-.406-.4H12.332A.409.409,0,0,0,11.926,1.7Z" transform="translate(0 0)" fill="#19264d"/>
</svg>
