<svg xmlns="http://www.w3.org/2000/svg" xmlns:xlink="http://www.w3.org/1999/xlink" width="96" height="96" viewBox="0 0 96 96">
  <defs>
    <clipPath id="clip-path">
      <circle id="Ellipse_14" data-name="Ellipse 14" cx="48" cy="48" r="48" transform="translate(140 86)" fill="#43535f"/>
    </clipPath>
  </defs>
  <g id="Mask_Group_5" data-name="Mask Group 5" transform="translate(-140 -86)" clip-path="url(#clip-path)">
    <g id="Background_Image" data-name="Background Image" transform="translate(140 86)">
      <rect id="Background_Image-2" data-name="Background Image" width="96" height="96" fill="#a3adb7"/>
    </g>
    <g id="Shape_1" data-name="Shape 1" transform="translate(150.197 103.611)">
      <g id="Shape_1-2" data-name="Shape 1">
        <g id="Group_839" data-name="Group 839">
          <path id="Path_60" data-name="Path 60" d="M96.51,81.648A9.887,9.887,0,0,0,95.2,76.72a16.408,16.408,0,0,0-4.641-4.935,38.382,38.382,0,0,0-8.685-4.639A78.81,78.81,0,0,0,68.81,63.279c-2.426,4.93-6.014,8.91-10.057,12.633a44.037,44.037,0,0,1-10.092-12.7c-2.287.6-4.549,1.144-6.779,1.793a55.075,55.075,0,0,0-12.019,4.9,23.219,23.219,0,0,0-6.039,4.717A10.534,10.534,0,0,0,21,82.028c.035,1.6-.024,3.212.015,4.816a12.425,12.425,0,0,0,.263,2.339,7.025,7.025,0,0,0,4.65,5.16,16.654,16.654,0,0,0,6.251,1.038q23.487.021,46.973,0,4.326,0,8.65-.173a11.091,11.091,0,0,0,4.913-1.4,6.627,6.627,0,0,0,3.368-4.066,11.732,11.732,0,0,0,.409-2.754C96.557,85.211,96.529,83.429,96.51,81.648ZM43.047,48.6a23.744,23.744,0,0,0,4.621,7.97A14.718,14.718,0,0,0,58.041,61.71a14.132,14.132,0,0,0,10.279-3.651,22.1,22.1,0,0,0,6.138-9.428,42.859,42.859,0,0,0,2.33-10.816,27.138,27.138,0,0,0-.392-8.44A14.352,14.352,0,0,0,66.8,18.264a22.856,22.856,0,0,0-5.976-1.169A25.515,25.515,0,0,0,52,17.87a14.267,14.267,0,0,0-10.475,9.95,24.146,24.146,0,0,0-1.037,7c.148,1.6.265,3.194.451,4.784A39.522,39.522,0,0,0,43.047,48.6Z" transform="translate(-20.999 -17.004)" fill="#e9ebed" fill-rule="evenodd"/>
        </g>
      </g>
    </g>
  </g>
</svg>
